<svg version="1.1" id="Layer_1" xmlns="http://www.w3.org/2000/svg" xmlns:xlink="http://www.w3.org/1999/xlink" x="0px" y="0px" width="288.833px" height="56.167px" viewBox="171.583 144.583 288.833 56.167" enable-background="new 171.583 144.583 288.833 56.167" xml:space="preserve">
<g>
	<g>
		<g enable-background="new    ">
			<path fill="#DD6011" d="M364.929,193.53v-30.924h2.161V191.5h14.767v2.031H364.929z"></path>
			<path fill="#DD6011" d="M403.846,182.616h-12.584l-4.322,10.915h-2.394l12.458-31.051h1.377l12.203,31.051h-2.437
				L403.846,182.616z M392.045,180.67h11.08l-4.216-11.147c-0.353-0.874-0.776-2.086-1.271-3.638
				c-0.382,1.354-0.798,2.581-1.25,3.68L392.045,180.67z"></path>
			<path fill="#DD6011" d="M414.188,162.606h8.495c3.827,0,6.639,0.649,8.433,1.946c1.793,1.298,2.69,3.258,2.69,5.88
				c0,1.791-0.548,3.282-1.643,4.474c-1.095,1.192-2.694,1.957-4.798,2.295v0.127c2.471,0.367,4.29,1.146,5.455,2.337
				c1.165,1.192,1.748,2.852,1.748,4.981c0,2.849-0.946,5.042-2.839,6.578c-1.894,1.537-4.576,2.306-8.051,2.306h-9.491V162.606z
				 M416.349,176.376h6.821c2.909,0,5.024-0.483,6.346-1.449c1.32-0.966,1.98-2.479,1.98-4.537c0-2.059-0.745-3.554-2.235-4.484
				s-3.711-1.396-6.663-1.396h-6.249V176.376z M416.349,178.28v13.347h7.287c5.734,0,8.602-2.327,8.602-6.98
				c0-4.244-3.022-6.367-9.067-6.367H416.349z"></path>
			<path fill="#DD6011" d="M456.708,185.556c0,2.581-0.95,4.625-2.85,6.134c-1.899,1.509-4.425,2.263-7.574,2.263
				c-3.785,0-6.688-0.416-8.707-1.248v-2.158c2.231,0.945,5.077,1.417,8.538,1.417c2.542,0,4.559-0.582,6.049-1.745
				c1.489-1.164,2.234-2.69,2.234-4.58c0-1.17-0.247-2.14-0.741-2.909c-0.494-0.768-1.3-1.47-2.415-2.104
				c-1.116-0.634-2.754-1.318-4.915-2.052c-3.164-1.085-5.35-2.26-6.558-3.521c-1.207-1.262-1.811-2.944-1.811-5.045
				c0-2.313,0.907-4.199,2.722-5.658c1.815-1.459,4.149-2.189,7.002-2.189c2.91,0,5.643,0.55,8.199,1.65l-0.784,1.861
				c-2.57-1.071-5.028-1.607-7.372-1.607c-2.288,0-4.11,0.529-5.466,1.586c-1.356,1.058-2.034,2.496-2.034,4.315
				c0,1.142,0.208,2.08,0.625,2.813c0.416,0.733,1.098,1.393,2.044,1.978c0.946,0.585,2.57,1.287,4.873,2.104
				c2.415,0.833,4.229,1.64,5.445,2.422c1.214,0.783,2.101,1.671,2.658,2.666S456.708,184.146,456.708,185.556z"></path>
		</g>
		<g>
			<g enable-background="new    ">
				<path fill="#404040" d="M205.932,178.2c0,5.07-1.277,9.028-3.831,11.875c-2.554,2.848-6.082,4.271-10.584,4.271
					c-2.781,0-5.25-0.652-7.406-1.958c-2.157-1.305-3.821-3.178-4.994-5.618c-1.173-2.44-1.759-5.296-1.759-8.569
					c0-5.07,1.267-9.019,3.802-11.847c2.535-2.828,6.054-4.242,10.556-4.242c4.351,0,7.808,1.447,10.371,4.342
					C204.65,169.346,205.932,173.262,205.932,178.2z M182.238,178.2c0,3.973,0.794,7,2.383,9.08
					c1.589,2.081,3.925,3.121,7.009,3.121s5.424-1.036,7.023-3.107s2.398-5.103,2.398-9.094c0-3.954-0.799-6.957-2.398-9.009
					s-3.958-3.079-7.08-3.079c-3.083,0-5.411,1.012-6.98,3.036C183.023,171.172,182.238,174.189,182.238,178.2z"></path>
				<path fill="#404040" d="M219.821,177.859l-10.811-15.181h5.363l8.201,11.917l8.172-11.917h5.306l-10.811,15.181l11.378,15.919
					h-5.334l-8.711-12.599l-8.796,12.599h-5.335L219.821,177.859z"></path>
				<path fill="#404040" d="M257.249,162.167c4.086,0,7.259,1.395,9.52,4.185c2.26,2.791,3.391,6.739,3.391,11.847
					c0,5.107-1.14,9.076-3.419,11.903c-2.28,2.829-5.444,4.242-9.492,4.242c-2.024,0-3.874-0.374-5.547-1.121
					c-1.674-0.747-3.079-1.896-4.214-3.448h-0.341l-0.993,4.001h-3.376v-44.153h4.71v10.726c0,2.403-0.076,4.559-0.227,6.47h0.227
					C249.682,163.719,252.936,162.167,257.249,162.167z M256.567,166.111c-3.216,0-5.533,0.922-6.952,2.767
					c-1.418,1.845-2.128,4.952-2.128,9.322c0,4.37,0.728,7.496,2.185,9.378c1.456,1.883,3.792,2.823,7.009,2.823
					c2.894,0,5.051-1.054,6.47-3.164c1.418-2.109,2.128-5.141,2.128-9.095c0-4.048-0.709-7.065-2.128-9.052
					C261.732,167.104,259.537,166.111,256.567,166.111z"></path>
				<path fill="#404040" d="M336.882,193.778l-5.704-18.246c-0.36-1.116-1.031-3.651-2.015-7.604h-0.227
					c-0.757,3.311-1.419,5.864-1.986,7.661l-5.874,18.189h-5.448l-8.484-31.1h4.937c2.005,7.813,3.533,13.762,4.583,17.848
					s1.65,6.838,1.802,8.257h0.227c0.208-1.078,0.543-2.473,1.007-4.186c0.463-1.712,0.865-3.069,1.206-4.072l5.704-17.848h5.107
					l5.562,17.848c1.059,3.254,1.778,5.987,2.157,8.201h0.227c0.075-0.681,0.279-1.731,0.61-3.15
					c0.331-1.418,2.303-9.052,5.917-22.899h4.88l-8.598,31.1H336.882z"></path>
			</g>
			<g>
				<path fill="#DD6011" d="M305.8,177.024c-0.443-2.165-1.377-4.311-2.857-6.561c-1.799-2.736-3.87-5.232-5.925-7.643h-6.566
					c0.609,0.723,1.221,1.439,1.821,2.14c2.361,2.755,4.591,5.357,6.494,8.25c1.14,1.733,1.819,3.263,2.136,4.814
					c0.534,2.613-0.08,4.969-1.877,7.204c-2.117,2.633-4.949,3.932-8.909,4.081c-4.437-0.214-7.555-1.947-9.533-5.295
					c-1.668-2.823-1.599-5.752,0.211-8.959c1.505-2.669,3.397-5.09,5.779-7.907l0.105-0.125c1.14-1.352,2.304-2.742,3.423-4.203
					h-6.422c-0.273,0.325-0.544,0.65-0.823,0.98l-0.103,0.122c-2.562,3.031-4.616,5.666-6.313,8.675
					c-2.689,4.762-2.745,9.589-0.162,13.96c2.879,4.874,7.494,7.482,13.716,7.751l0.095,0.004l0.095-0.003
					c5.423-0.178,9.708-2.18,12.737-5.949C305.631,184.992,306.627,181.072,305.8,177.024z"></path>
			</g>
		</g>
	</g>
</g>
</svg>