<?xml version="1.0" encoding="UTF-8" standalone="no"?>
<svg
   xmlns:dc="http://purl.org/dc/elements/1.1/"
   xmlns:cc="http://creativecommons.org/ns#"
   xmlns:rdf="http://www.w3.org/1999/02/22-rdf-syntax-ns#"
   xmlns:svg="http://www.w3.org/2000/svg"
   xmlns="http://www.w3.org/2000/svg"
   xmlns:sodipodi="http://sodipodi.sourceforge.net/DTD/sodipodi-0.dtd"
   xmlns:inkscape="http://www.inkscape.org/namespaces/inkscape"
   id="02a2c616-9386-47b6-b046-c34d47bcf0e9"
   data-name="Layer 1"
   width="270.54"
   height="78.57"
   viewBox="0 0 270.54 78.57"
   version="1.1"
   sodipodi:docname="logo.svg"
   inkscape:version="0.92.0 r15299">
  <metadata
     id="metadata4945">
    <rdf:RDF>
      <cc:Work
         rdf:about="">
        <dc:format>image/svg+xml</dc:format>
        <dc:type
           rdf:resource="http://purl.org/dc/dcmitype/StillImage" />
        <dc:title>Artboard 1</dc:title>
      </cc:Work>
    </rdf:RDF>
  </metadata>
  <defs
     id="defs4943" />
  <sodipodi:namedview
     pagecolor="#ffffff"
     bordercolor="#666666"
     borderopacity="1"
     objecttolerance="10"
     gridtolerance="10"
     guidetolerance="10"
     inkscape:pageopacity="0"
     inkscape:pageshadow="2"
     inkscape:window-width="3200"
     inkscape:window-height="1776"
     id="namedview4941"
     showgrid="false"
     inkscape:zoom="9.414504"
     inkscape:cx="135.27"
     inkscape:cy="39.285"
     inkscape:window-x="0"
     inkscape:window-y="24"
     inkscape:window-maximized="1"
     inkscape:current-layer="02a2c616-9386-47b6-b046-c34d47bcf0e9" />
  <title
     id="title4894">Artboard 1</title>
  <path
     d="M48.32,5.56H64a35.15,35.15,0,0,1,7.5.56,8,8,0,0,1,4.58,2.74,7.2,7.2,0,0,1,1.63,4.61,8.48,8.48,0,0,1-1.29,4.31,9.88,9.88,0,0,1-3.85,3.62A31.41,31.41,0,0,1,64.73,24q5.51,1.55,7.65,4a8.3,8.3,0,0,1,2.14,5.65,10.16,10.16,0,0,1-2.11,6,12.17,12.17,0,0,1-5.6,4.31Q63.32,45.29,54,45.29H37.51l.38-1.08a9.64,9.64,0,0,0,3.44-.44A3.75,3.75,0,0,0,43,42.4a15.72,15.72,0,0,0,1.48-3.85l7.09-24.43a22.73,22.73,0,0,0,1.08-5,2.07,2.07,0,0,0-.86-1.7q-.86-.67-3.76-.79Zm8.29,19.75L51.54,43Q53,43,53.74,43q6.53,0,9.08-3.65a13.38,13.38,0,0,0,2.55-7.81,6.42,6.42,0,0,0-1-3.53,5.2,5.2,0,0,0-2.53-2.14A16.07,16.07,0,0,0,56.61,25.31Zm.7-2.2a14.16,14.16,0,0,0,6.28-1.26,8.7,8.7,0,0,0,3.69-3.94,11.47,11.47,0,0,0,1.39-5.17,4.85,4.85,0,0,0-5.27-5.1L61.8,7.7Z"
     id="path4896"
     style="fill:#ffffff" />
  <path
     d="M88.43,34.3a23.72,23.72,0,0,0-.26,3.13,4.84,4.84,0,0,0,1.27,3.52,4.53,4.53,0,0,0,3.41,1.32,9.41,9.41,0,0,0,4.12-1,21.2,21.2,0,0,0,4.79-3.49l.88.79a23.39,23.39,0,0,1-6.56,5.8A14.59,14.59,0,0,1,89,46.11q-4.89,0-6.77-2.34a8.43,8.43,0,0,1-1.87-5.42,19,19,0,0,1,2.8-9.61A21.48,21.48,0,0,1,90.79,21a18.62,18.62,0,0,1,9.68-2.9,5.28,5.28,0,0,1,3.72,1.17,3.87,3.87,0,0,1,1.26,3,7.9,7.9,0,0,1-1.23,4.16,14,14,0,0,1-4.28,4.44,20.34,20.34,0,0,1-5.77,2.56A32.59,32.59,0,0,1,88.43,34.3Zm.26-1.52a15.06,15.06,0,0,0,4-1,9.21,9.21,0,0,0,2.78-2.11A13.23,13.23,0,0,0,97.83,26a10.14,10.14,0,0,0,1-4.15,1.77,1.77,0,0,0-.45-1.29,1.54,1.54,0,0,0-1.16-.47q-1.41,0-3.16,2Q90.83,25.6,88.69,32.78Z"
     id="path4898"
     style="fill:#ffffff" />
  <path
     d="M122.88,11l-2.34,8h3.84l-1,3.37h-3.78l-4.89,17a9.3,9.3,0,0,0-.47,2.4.93.93,0,0,0,.26.66.79.79,0,0,0,.59.28,1.68,1.68,0,0,0,1-.41,16.47,16.47,0,0,0,3.13-3.57l1,.64a15.2,15.2,0,0,1-4.45,5.16A8.53,8.53,0,0,1,111,46.11a4.4,4.4,0,0,1-3.09-1,3.33,3.33,0,0,1-1.1-2.56,16.63,16.63,0,0,1,.76-4.37l4.63-15.85h-4l.59-2.17a26.58,26.58,0,0,0,6.33-3.22A40.45,40.45,0,0,0,121.36,11Z"
     id="path4900"
     style="fill:#ffffff" />
  <path
     d="M142.07,4.65,134.45,31a95.54,95.54,0,0,1,5.74-7.88,19.07,19.07,0,0,1,4.58-4,7.72,7.72,0,0,1,3.68-1A3.41,3.41,0,0,1,151,19.26a4.18,4.18,0,0,1,1.07,3,14.46,14.46,0,0,1-.7,4l-3.72,12.48a9.66,9.66,0,0,0-.5,2.2.69.69,0,0,0,.21.48.63.63,0,0,0,.47.22,1.1,1.1,0,0,0,.7-.29,9.77,9.77,0,0,0,2-2.34q.26-.41.85-1.23l1.14.64a18.65,18.65,0,0,1-4.78,5.71,7.63,7.63,0,0,1-4.28,1.55,4.05,4.05,0,0,1-2.84-.94,3,3,0,0,1-1-2.34,14,14,0,0,1,.7-3.66l3.63-12.48a8.12,8.12,0,0,0,.35-1.87.85.85,0,0,0-.82-.82q-1.05,0-2.9,1.76-3.81,3.6-7.62,11.31l-2.61,8.7h-7.27l9.61-33.11a13.09,13.09,0,0,0,.59-3A1.32,1.32,0,0,0,132.7,8a3.63,3.63,0,0,0-2.34-.47l.21-1.17,9.76-1.73Z"
     id="path4902"
     style="fill:#ffffff" />
  <path
     d="M158,29.08h17.05l-1.82,6.09H156.1Z"
     id="path4904"
     style="fill:#ffffff" />
  <path
     d="M198.38,7.76,194,23.17h1.35q5.33,0,7.78-1.41a10.87,10.87,0,0,0,4.15-5h1.08l-4.45,15.47h-1a15.74,15.74,0,0,0,.26-2.52,3.73,3.73,0,0,0-1-2.64,5.3,5.3,0,0,0-2.48-1.46,18.14,18.14,0,0,0-4.13-.29h-2.29l-3.81,13.33a10.71,10.71,0,0,0-.5,2.61,1.24,1.24,0,0,0,.64,1.08,7.35,7.35,0,0,0,3.54.59,21.52,21.52,0,0,0,9.43-2.12,23.28,23.28,0,0,0,7.94-6.43h1.2l-4.13,10.9h-34l.35-1.08a6.86,6.86,0,0,0,4.37-1.13q1.38-1.13,2.49-5l7.47-25.58a13,13,0,0,0,.62-3.37,2,2,0,0,0-.79-1.71,7.82,7.82,0,0,0-3.6-.81l.32-1.08h31.67l-2.55,9.93h-1.05a8.54,8.54,0,0,0-.91-4.13,7.19,7.19,0,0,0-3.27-2.74,18.27,18.27,0,0,0-6.61-.86Z"
     id="path4906"
     style="fill:#ffffff" />
  <path
     d="M234.71,4.65l-9.7,33a19.34,19.34,0,0,0-.85,3.66.9.9,0,0,0,.25.64.74.74,0,0,0,.54.26,1.49,1.49,0,0,0,1-.41,16.37,16.37,0,0,0,3.13-3.87l1.14.53a21.94,21.94,0,0,1-5.48,6.36,6.74,6.74,0,0,1-3.93,1.29,4.4,4.4,0,0,1-3.08-1,3.27,3.27,0,0,1-1.14-2.5,14.22,14.22,0,0,1,.7-3.49l7.91-27a13.73,13.73,0,0,0,.64-3A1.27,1.27,0,0,0,225.25,8a3.93,3.93,0,0,0-2.49-.5l.32-1.11L233,4.65Z"
     id="path4908"
     style="fill:#ffffff" />
  <path
     d="M15.48,68.67l4.31-10.48h6.47v.43h-.52a2.22,2.22,0,0,0-1.12.25,1.14,1.14,0,0,0-.47.55A4.77,4.77,0,0,0,24,60.89V71.37a5.22,5.22,0,0,0,.13,1.52,1.17,1.17,0,0,0,.53.53,2.14,2.14,0,0,0,1.07.23h.52v.43H18v-.43h.52a2.22,2.22,0,0,0,1.13-.25,1.14,1.14,0,0,0,.47-.56,4.83,4.83,0,0,0,.13-1.48V59.59l-6.09,14.5h-.28L7.64,59.69V70.89a9.88,9.88,0,0,0,.06,1.44,1.67,1.67,0,0,0,.66,1,2.75,2.75,0,0,0,1.6.37v.43H4.52v-.43h.16a2.49,2.49,0,0,0,1-.17A1.58,1.58,0,0,0,6.36,73a2.24,2.24,0,0,0,.36-.86q0-.13,0-1.2V60.89a5.09,5.09,0,0,0-.13-1.51,1.18,1.18,0,0,0-.53-.53A2.14,2.14,0,0,0,5,58.63h-.5v-.43H11Z"
     id="path4910"
     style="fill:#ffffff" />
  <path
     d="M33.23,59.11v6.47h.32a2.51,2.51,0,0,0,2.19-.95,5.84,5.84,0,0,0,.87-2.8h.45v8.32h-.45A6.23,6.23,0,0,0,36,67.92a2.55,2.55,0,0,0-1-1.17,4,4,0,0,0-1.73-.3v4.48a6.46,6.46,0,0,0,.11,1.61,1,1,0,0,0,.42.48,2,2,0,0,0,1,.19h.95a5.7,5.7,0,0,0,3.57-1A5.74,5.74,0,0,0,41.19,69h.43l-.71,5.05H27.18v-.43h.53a2.2,2.2,0,0,0,1.11-.25,1.07,1.07,0,0,0,.47-.56,4.83,4.83,0,0,0,.13-1.48V60.91a8.33,8.33,0,0,0-.06-1.32,1.12,1.12,0,0,0-.43-.63,2,2,0,0,0-1.22-.33h-.53v-.43h13.3v4.7H40a5.73,5.73,0,0,0-1-2.47,3.55,3.55,0,0,0-1.74-1.1,9.42,9.42,0,0,0-2.46-.21Z"
     id="path4912"
     style="fill:#ffffff" />
  <path
     d="M48.68,58.19l7.84,9.86V61.22a3.23,3.23,0,0,0-.41-1.93,2.27,2.27,0,0,0-1.89-.66v-.43h5.25v.43a4,4,0,0,0-1.35.33,1.34,1.34,0,0,0-.54.67,4.56,4.56,0,0,0-.19,1.59V74.45H57L46.24,61.22v10.1a2.23,2.23,0,0,0,.63,1.85,2.3,2.3,0,0,0,1.44.48h.38v.43H43v-.43a2.55,2.55,0,0,0,1.83-.54,2.52,2.52,0,0,0,.52-1.79V60.11L45,59.68a3.09,3.09,0,0,0-.89-.83A2.68,2.68,0,0,0,43,58.63v-.43Z"
     id="path4914"
     style="fill:#ffffff" />
  <path
     d="M66,58.19l7.84,9.86V61.22a3.23,3.23,0,0,0-.41-1.93,2.27,2.27,0,0,0-1.89-.66v-.43H76.8v.43a4,4,0,0,0-1.35.33,1.34,1.34,0,0,0-.54.67,4.56,4.56,0,0,0-.19,1.59V74.45h-.4L63.57,61.22v10.1a2.23,2.23,0,0,0,.63,1.85,2.3,2.3,0,0,0,1.44.48H66v.43H60.37v-.43a2.55,2.55,0,0,0,1.83-.54,2.52,2.52,0,0,0,.52-1.79V60.11l-.34-.42a3.09,3.09,0,0,0-.89-.83,2.68,2.68,0,0,0-1.11-.22v-.43Z"
     id="path4916"
     style="fill:#ffffff" />
  <path
     d="M86.64,58a7.89,7.89,0,0,1,8.54,8.11,8.47,8.47,0,0,1-1.77,5.32,7.87,7.87,0,0,1-6.62,3,8,8,0,0,1-6.63-2.91,8.42,8.42,0,0,1-1.85-5.45,7.93,7.93,0,0,1,2.41-5.9A7.67,7.67,0,0,1,86.64,58Zm.14.75a3.58,3.58,0,0,0-3.32,2.23,11.9,11.9,0,0,0-.93,5.25q0,4.07,1.43,6a3.26,3.26,0,0,0,2.79,1.36,3.35,3.35,0,0,0,2-.59,4.81,4.81,0,0,0,1.61-2.4,13.31,13.31,0,0,0,.57-4.29,14.27,14.27,0,0,0-.59-4.72,4.59,4.59,0,0,0-1.49-2.21A3.52,3.52,0,0,0,86.78,58.72Z"
     id="path4918"
     style="fill:#ffffff" />
  <path
     d="M102,58.19l7.84,9.86V61.22a3.23,3.23,0,0,0-.41-1.93,2.27,2.27,0,0,0-1.89-.66v-.43h5.25v.43a4,4,0,0,0-1.35.33,1.34,1.34,0,0,0-.54.67,4.56,4.56,0,0,0-.19,1.59V74.45h-.4L99.57,61.22v10.1a2.23,2.23,0,0,0,.63,1.85,2.3,2.3,0,0,0,1.44.48H102v.43H96.37v-.43a2.55,2.55,0,0,0,1.83-.54,2.52,2.52,0,0,0,.52-1.79V60.11l-.34-.42a3.09,3.09,0,0,0-.89-.83,2.68,2.68,0,0,0-1.11-.22v-.43Z"
     id="path4920"
     style="fill:#ffffff" />
  <path
     d="M122.16,73.65v.43h-8.31v-.43h.53a2.2,2.2,0,0,0,1.11-.25,1.07,1.07,0,0,0,.47-.56,4.83,4.83,0,0,0,.13-1.48V60.91a5.22,5.22,0,0,0-.13-1.52,1.17,1.17,0,0,0-.52-.53,2.11,2.11,0,0,0-1.06-.23h-.53v-.43h8.31v.43h-.53a2.2,2.2,0,0,0-1.11.25,1.12,1.12,0,0,0-.48.56,4.83,4.83,0,0,0-.13,1.48V71.37a5,5,0,0,0,.13,1.52,1.21,1.21,0,0,0,.53.53,2.11,2.11,0,0,0,1.06.23Z"
     id="path4922"
     style="fill:#ffffff" />
  <path
     d="M137.85,58.19v4.3h-.42a6.79,6.79,0,0,0-.83-2.14,3.2,3.2,0,0,0-1.25-1,4,4,0,0,0-1.56-.21H132.6V71.37a5,5,0,0,0,.13,1.52,1.21,1.21,0,0,0,.53.53,2.13,2.13,0,0,0,1.07.23h.53v.43h-8.32v-.43h.53a2.2,2.2,0,0,0,1.11-.25,1.12,1.12,0,0,0,.48-.56,4.83,4.83,0,0,0,.13-1.48V59.11h-1.15a3.34,3.34,0,0,0-2.33.68A4.5,4.5,0,0,0,124,62.5h-.45v-4.3Z"
     id="path4924"
     style="fill:#ffffff" />
  <path
     d="M145.25,59.11v6.47h.32a2.51,2.51,0,0,0,2.19-.95,5.84,5.84,0,0,0,.87-2.8h.45v8.32h-.45a6.23,6.23,0,0,0-.59-2.23,2.55,2.55,0,0,0-1-1.17,4,4,0,0,0-1.73-.3v4.48a6.46,6.46,0,0,0,.11,1.61,1,1,0,0,0,.42.48,2,2,0,0,0,1,.19h.95a5.12,5.12,0,0,0,5.5-4.17h.43l-.71,5.05H139.19v-.43h.53a2.2,2.2,0,0,0,1.11-.25,1.07,1.07,0,0,0,.47-.56,4.83,4.83,0,0,0,.13-1.48V60.91a8.33,8.33,0,0,0-.06-1.32,1.12,1.12,0,0,0-.43-.63,2,2,0,0,0-1.22-.33h-.53v-.43h13.3v4.7h-.45a5.73,5.73,0,0,0-1-2.47,3.55,3.55,0,0,0-1.74-1.1,9.42,9.42,0,0,0-2.46-.21Z"
     id="path4926"
     style="fill:#ffffff" />
  <path
     d="M176.74,57.83v5.51h-.46a5.87,5.87,0,0,0-1.92-3.3,4.9,4.9,0,0,0-3.19-1.15,4.71,4.71,0,0,0-2.73.86A5,5,0,0,0,166.63,62a10.13,10.13,0,0,0-.74,3.94,13.17,13.17,0,0,0,.54,3.88,5.17,5.17,0,0,0,1.69,2.65,4.7,4.7,0,0,0,3,.9,5.81,5.81,0,0,0,2.75-.66,9.5,9.5,0,0,0,2.63-2.26V71.8a8.68,8.68,0,0,1-2.78,2,8.45,8.45,0,0,1-3.38.63,9.71,9.71,0,0,1-4.52-1,7.21,7.21,0,0,1-3-2.93,8.18,8.18,0,0,1-1.07-4.07,8.67,8.67,0,0,1,4.4-7.48,8.7,8.7,0,0,1,4.29-1.12,9.75,9.75,0,0,1,3.54.73,5.44,5.44,0,0,0,1.37.42.89.89,0,0,0,.65-.28,1.5,1.5,0,0,0,.36-.87Z"
     id="path4928"
     style="fill:#ffffff" />
  <path
     d="M184.62,66.44v4.92a5,5,0,0,0,.13,1.52,1.21,1.21,0,0,0,.53.53,2.11,2.11,0,0,0,1.06.23h.53v.43h-8.31v-.43h.53a2.2,2.2,0,0,0,1.11-.25,1.07,1.07,0,0,0,.47-.56,4.83,4.83,0,0,0,.13-1.48V60.91a5.22,5.22,0,0,0-.13-1.52,1.17,1.17,0,0,0-.52-.53,2.11,2.11,0,0,0-1.06-.23h-.53v-.43h8.31v.43h-.53a2.2,2.2,0,0,0-1.11.25,1.12,1.12,0,0,0-.48.56,4.83,4.83,0,0,0-.13,1.48v4.5h5.61v-4.5a5.22,5.22,0,0,0-.13-1.52,1.17,1.17,0,0,0-.53-.53,2.14,2.14,0,0,0-1.07-.23H188v-.43h8.3v.43h-.52a2.16,2.16,0,0,0-1.11.25,1.12,1.12,0,0,0-.48.56,4.83,4.83,0,0,0-.13,1.48V71.37a5.22,5.22,0,0,0,.13,1.52,1.17,1.17,0,0,0,.53.53,2.14,2.14,0,0,0,1.07.23h.52v.43H188v-.43h.52a2.16,2.16,0,0,0,1.11-.25,1.12,1.12,0,0,0,.48-.56,4.83,4.83,0,0,0,.13-1.48V66.44Z"
     id="path4930"
     style="fill:#ffffff" />
  <path
     d="M197.28,58.19h8.2v.43h-.41a2.88,2.88,0,0,0-1.27.19,1.1,1.1,0,0,0-.49.53,5.72,5.72,0,0,0-.15,1.7v7.78a7.92,7.92,0,0,0,.32,2.82,2.68,2.68,0,0,0,1.06,1.15,3.48,3.48,0,0,0,1.86.46,4,4,0,0,0,2.2-.58,3.56,3.56,0,0,0,1.36-1.6,9.72,9.72,0,0,0,.45-3.55V61.05a3.75,3.75,0,0,0-.22-1.52,1.33,1.33,0,0,0-.56-.63,3.33,3.33,0,0,0-1.49-.27v-.43h5.5v.43h-.33a2.12,2.12,0,0,0-1.11.27,1.53,1.53,0,0,0-.64.81,4,4,0,0,0-.15,1.35v6a15.68,15.68,0,0,1-.37,4,4.51,4.51,0,0,1-1.8,2.29,6.5,6.5,0,0,1-3.9,1,7.42,7.42,0,0,1-3.19-.55A4.68,4.68,0,0,1,200,72a6.66,6.66,0,0,1-.63-3.15V61.05a5.51,5.51,0,0,0-.15-1.71,1.14,1.14,0,0,0-.53-.53,3.2,3.2,0,0,0-1.38-.19Z"
     id="path4932"
     style="fill:#ffffff" />
  <path
     d="M220.43,66.84V71.3a4.92,4.92,0,0,0,.16,1.62,1.16,1.16,0,0,0,.56.53,3.75,3.75,0,0,0,1.49.2v.43H214.5v-.43a3.65,3.65,0,0,0,1.49-.21,1.2,1.2,0,0,0,.55-.53,4.86,4.86,0,0,0,.16-1.62V61a4.92,4.92,0,0,0-.16-1.62,1.16,1.16,0,0,0-.56-.53,3.75,3.75,0,0,0-1.49-.2v-.43h7.38a16.11,16.11,0,0,1,4.22.4,4.25,4.25,0,0,1,2.18,1.47,4,4,0,0,1,.84,2.51,3.75,3.75,0,0,1-1.27,2.91,5.23,5.23,0,0,1-2.26,1.09L229.42,72a8.13,8.13,0,0,0,1.07,1.3,2,2,0,0,0,1.11.4v.43h-5l-5.12-7.24Zm0-7.79v7h.67a7.47,7.47,0,0,0,2.44-.3,2.43,2.43,0,0,0,1.27-1.08,4,4,0,0,0,.46-2,3.09,3.09,0,0,0-3.59-3.55Z"
     id="path4934"
     style="fill:#ffffff" />
  <path
     d="M247.41,57.83v5.51h-.46A5.87,5.87,0,0,0,245,60a4.9,4.9,0,0,0-3.19-1.15,4.71,4.71,0,0,0-2.73.86A5,5,0,0,0,237.29,62a10.13,10.13,0,0,0-.74,3.94,13.17,13.17,0,0,0,.54,3.88,5.17,5.17,0,0,0,1.69,2.65,4.7,4.7,0,0,0,3,.9,5.81,5.81,0,0,0,2.75-.66,9.5,9.5,0,0,0,2.63-2.26V71.8a8.68,8.68,0,0,1-2.78,2,8.45,8.45,0,0,1-3.38.63,9.71,9.71,0,0,1-4.52-1,7.21,7.21,0,0,1-3-2.93,8.18,8.18,0,0,1-1.07-4.07,8.67,8.67,0,0,1,4.4-7.48A8.7,8.7,0,0,1,241,57.83a9.75,9.75,0,0,1,3.54.73,5.44,5.44,0,0,0,1.37.42.89.89,0,0,0,.65-.28,1.5,1.5,0,0,0,.36-.87Z"
     id="path4936"
     style="fill:#ffffff" />
  <path
     d="M255.28,66.44v4.92a5,5,0,0,0,.13,1.52,1.21,1.21,0,0,0,.53.53,2.11,2.11,0,0,0,1.06.23h.53v.43h-8.31v-.43h.53a2.2,2.2,0,0,0,1.11-.25,1.07,1.07,0,0,0,.47-.56,4.83,4.83,0,0,0,.13-1.48V60.91a5.22,5.22,0,0,0-.13-1.52,1.17,1.17,0,0,0-.52-.53,2.11,2.11,0,0,0-1.06-.23h-.53v-.43h8.31v.43H257a2.2,2.2,0,0,0-1.11.25,1.12,1.12,0,0,0-.48.56,4.83,4.83,0,0,0-.13,1.48v4.5h5.61v-4.5a5.22,5.22,0,0,0-.13-1.52,1.17,1.17,0,0,0-.53-.53,2.14,2.14,0,0,0-1.07-.23h-.52v-.43H267v.43h-.52a2.16,2.16,0,0,0-1.11.25,1.12,1.12,0,0,0-.48.56,4.83,4.83,0,0,0-.13,1.48V71.37a5.22,5.22,0,0,0,.13,1.52,1.17,1.17,0,0,0,.53.53,2.14,2.14,0,0,0,1.07.23H267v.43h-8.3v-.43h.52a2.16,2.16,0,0,0,1.11-.25,1.12,1.12,0,0,0,.48-.56,4.83,4.83,0,0,0,.13-1.48V66.44Z"
     id="path4938"
     style="fill:#ffffff" />
</svg>
